<svg width="38" height="25" viewBox="0 0 38 25" fill="none" xmlns="http://www.w3.org/2000/svg">
<path d="M35.046 2.9776C34.4416 2.35145 33.6242 2 32.7721 2C31.92 2 31.1026 2.35145 30.4983 2.9776L18.9194 14.8785L7.50174 2.9776C6.89744 2.35145 6.07997 2 5.22789 2C4.37581 2 3.55835 2.35145 2.95404 2.9776C2.65174 3.29012 2.41179 3.66194 2.24805 4.07161C2.0843 4.48129 2 4.9207 2 5.3645C2 5.8083 2.0843 6.24771 2.24805 6.65738C2.41179 7.06705 2.65174 7.43887 2.95404 7.7514L16.6294 22.0056C16.9292 22.3207 17.2859 22.5708 17.679 22.7415C18.072 22.9121 18.4936 23 18.9194 23C19.3451 23 19.7667 22.9121 20.1597 22.7415C20.5528 22.5708 20.9095 22.3207 21.2093 22.0056L35.046 7.7514C35.3483 7.43887 35.5882 7.06705 35.7519 6.65738C35.9157 6.24771 36 5.8083 36 5.3645C36 4.9207 35.9157 4.48129 35.7519 4.07161C35.5882 3.66194 35.3483 3.29012 35.046 2.9776Z" fill="white" stroke="#303644" stroke-opacity="0.7" stroke-width="3"/>
</svg>
