<svg width="52" height="51" viewBox="0 0 52 51" fill="none" xmlns="http://www.w3.org/2000/svg">
<path d="M27.7578 21.9167H28.9824L28.1078 21.0596L21.9554 15.0303C21.666 14.7466 21.5195 14.3992 21.5195 13.9518C21.5195 13.5045 21.666 13.157 21.9554 12.8734L24.9177 9.97039C25.2077 9.68613 25.5672 9.53906 26.0326 9.53906C26.4979 9.53906 26.8574 9.68613 27.1474 9.97039L38.9313 21.5186L41.8935 24.4216C42.183 24.7052 42.3294 25.0527 42.3294 25.5C42.3294 25.9473 42.183 26.2948 41.8935 26.5784L38.9313 29.4814L27.1474 41.0296C26.8574 41.3139 26.4979 41.4609 26.0326 41.4609C25.5672 41.4609 25.2077 41.3139 24.9177 41.0296L21.9554 38.1266C21.6343 37.8119 21.487 37.4603 21.487 37.0482C21.487 36.6361 21.6343 36.2844 21.9554 35.9697L28.1078 29.9404L28.9824 29.0833H27.7578H11.4167C10.9866 29.0833 10.6231 28.935 10.3018 28.6201C9.98069 28.3054 9.83333 27.9538 9.83333 27.5417V23.4583C9.83333 23.0462 9.98069 22.6946 10.3018 22.3799C10.6231 22.065 10.9866 21.9167 11.4167 21.9167H27.7578ZM48.0767 38.0537C50.3589 34.2212 51.5 30.0333 51.5 25.5C51.5 20.9667 50.3589 16.7788 48.0767 12.9463C45.7969 9.11783 42.7014 6.08465 38.7971 3.85177C34.889 1.61676 30.6201 0.5 26 0.5C21.3799 0.5 17.111 1.61676 13.2029 3.85177C9.29863 6.08465 6.20306 9.11783 3.92326 12.9463C1.64111 16.7788 0.5 20.9667 0.5 25.5C0.5 30.0333 1.64111 34.2212 3.92326 38.0537C6.20306 41.8822 9.29863 44.9154 13.2029 47.1482C17.111 49.3832 21.3799 50.5 26 50.5C30.6201 50.5 34.889 49.3832 38.7971 47.1482C42.7014 44.9154 45.7969 41.8822 48.0767 38.0537Z" fill="black" fill-opacity="0.2" stroke="white"/>
</svg>
