<svg width="125" height="44" viewBox="0 0 125 44" fill="none" xmlns="http://www.w3.org/2000/svg">
<path fill-rule="evenodd" clip-rule="evenodd" d="M0 43.8381H43.8356V0H0V43.8381Z" fill="#FF9E18"/>
<path fill-rule="evenodd" clip-rule="evenodd" d="M26.2856 13.6623V15.7217C27.4171 14.9356 28.7549 14.4923 30.2189 14.4923C34.1625 14.4923 37.3586 17.8198 37.3586 21.9232C37.3586 26.0292 34.1625 29.3567 30.2189 29.3567C28.76 29.3567 27.4042 28.9005 26.2753 28.1195V33.0786L22.7725 33.8802V14.5103L26.2856 13.6623ZM21.0437 9.21096V23.2119C21.0437 26.6323 18.4534 29.3593 14.2082 29.3593C10.9554 29.3593 7.59435 27.5138 7.59435 22.6913V10.0126L11.2312 9.21096V22.1655C11.2312 23.8202 11.5353 25.859 14.3732 25.859C16.9094 25.859 17.4043 24.1218 17.4043 21.8639V10.0126L21.0437 9.21096ZM29.9946 17.6755C27.6517 17.6755 25.9428 19.6318 25.9428 21.918C25.9428 24.2069 27.6517 26.1632 29.9946 26.1632C32.3376 26.1632 34.0465 24.2069 34.0465 21.918C34.0465 19.6318 32.3376 17.6755 29.9946 17.6755Z" fill="#FEFEFE"/>
<path fill-rule="evenodd" clip-rule="evenodd" d="M70.9303 6.99843C76.0698 6.99843 79.6963 8.85681 82.6321 11.4884L79.137 15.981C76.6317 14.1226 74.6883 12.4834 70.7576 12.4834C65.3165 12.4834 61.2569 17.1899 61.2569 22.8913C61.2569 28.8505 66.4403 32.5208 70.9741 32.5208C73.1314 32.5208 75.6368 31.6136 77.3637 30.4924V25.3941H68.7291L70.5436 19.9117H83.0651V33.557C81.1655 35.7582 75.4203 38.0058 70.9741 38.0058C62.3807 38.0058 55.3003 31.2244 55.3003 22.4583C55.3003 13.5195 62.8137 6.99843 70.9303 6.99843ZM109.389 20.1267H103.819V37.3135L98.3337 37.6588V20.1267H94.8773L96.0887 15.3763H98.3337C98.4626 12.2679 99.9318 10.1517 101.919 8.72639C104.079 7.17215 106.365 6.99946 109.605 6.99946L111.549 12.0952C110.381 12.0514 109.172 12.0075 108.007 12.0075C105.461 12.0075 103.948 12.6983 103.819 15.3763H109.389L109.388 19.5886L110.463 15.3758H112.621V11.5766L118.106 9.11508V15.3758H123.073V20.1262H118.106V29.498C118.106 31.6141 119.013 32.9956 122.209 32.9956C122.812 32.9956 123.506 32.9518 124.109 32.908L122.771 37.8336C122.25 37.9625 121.302 38.0037 120.611 38.0037C115.992 38.0037 112.621 35.5422 112.621 30.663V20.1262L109.388 20.1256L109.389 20.1267ZM92.7687 14.858V37.3132L87.2837 37.6586V15.3761L92.7687 14.858ZM90.1345 5.8316L93.8486 9.50454L90.1345 13.1749L86.4203 9.50454L90.1345 5.8316Z" fill="#2C3334"/>
</svg>
